<?xml version="1.0"?>
<svg xmlns="http://www.w3.org/2000/svg" width="540" height="496">
  <!--WEB.COM-->
  <g>
    <title>Layer 1</title>
    <text xml:space="preserve" text-anchor="middle" font-size="48" id="svg_1" y="372" x="270" stroke-opacity="0" stroke-width="0" stroke="#0000FF" fill="#000000"/>
    <path font-family="Arvo" id="svg_3" d="m289.67426,74.95352c6.71219,-5.76901 10.96429,-14.30464 10.96429,-23.84631c0,-17.40137 -14.09241,-31.50873 -31.50952,-31.50873c-17.39349,0 -31.50952,14.10736 -31.50952,31.50873c0,9.45522 4.18924,17.9201 10.79922,23.70483c-73.17374,9.81676 -129.59061,72.48209 -129.59061,148.33597c0,82.6525 67.01181,149.66501 149.67212,149.66501c82.66827,0 149.67212,-67.02039 149.67212,-149.66501c0,-75.4845 -55.8588,-137.89752 -128.49811,-148.18665l0,-0.00784zm-42.73312,-23.85417c0,-12.25325 9.9425,-22.19577 22.1879,-22.19577c12.26895,0 22.19574,9.94252 22.19574,22.19577c0,12.25325 -9.93463,22.18791 -22.19574,22.18791c-12.2533,0 -22.1879,-9.9425 -22.1879,-22.18791zm27.68179,306.58302l-5.58038,-31.78458l-5.54108,31.82465c-69.86481,-2.57089 -126.16377,-58.29611 -129.53549,-127.95657l31.54086,-5.56464l-31.59598,-5.49396c2.27942,-70.61145 58.88492,-127.47633 129.40988,-130.14862l6.12268,34.81844l6.05978,-34.77129c69.34613,3.54471 124.83551,59.55289 127.57855,129.12689l-32.57846,5.73755l32.54703,5.659c-3.05746,69.57397 -58.86121,125.44067 -128.43524,128.56097m-6.11484,-232.98485c-54.34979,0 -98.427,44.06929 -98.427,98.4269c0,54.34979 44.06937,98.41202 98.427,98.41202c54.35764,0 98.42694,-44.05438 98.42694,-98.41202c0,-54.36548 -44.06931,-98.4269 -98.42694,-98.4269zm58.45248,38.59895l-48.71436,37.48285l-7.96973,-61.26628c22.04645,0.44801 42.00223,9.42375 56.69202,23.78343l-0.00793,0zm-59.56854,-23.80702l-7.98544,61.28203l-49.06808,-37.75797c14.81552,-14.32822 34.88132,-23.23326 57.05353,-23.52406zm-59.0499,25.53615l37.76584,49.06018l-61.22708,7.98547c0.27515,-22.14862 9.14883,-42.22226 23.46124,-57.04565zm-23.45322,59.94586l61.20334,7.96188l-37.4357,48.62003c-14.32031,-14.66617 -23.28821,-34.55902 -23.76764,-56.58191zm25.90546,58.68048l48.62006,-37.41214l7.8754,60.50391c-21.89713,-0.30655 -41.74283,-9.03082 -56.48761,-23.09177l-0.00784,0zm52.43988,-60.51965c0,-2.91516 2.36578,-5.27307 5.27383,-5.27307c2.91595,0 5.28168,2.35791 5.28168,5.27307c0,2.90024 -2.36572,5.26602 -5.28168,5.26602c-2.90805,0 -5.27383,-2.36578 -5.27383,-5.26602zm7.13657,83.5957l7.8754,-60.48035l48.26642,37.13705c-14.61902,14.07669 -34.36258,22.87958 -56.14182,23.34329zm58.35037,-25.52829l-37.1528,-48.26636l60.5668,-7.88327c-0.49512,21.79492 -9.32941,41.52274 -23.414,56.14963zm-37.1528,-67.11392l37.47507,-48.68292c14.06094,14.76129 22.80884,34.64554 23.09961,56.58194l-60.58252,-7.89902" stroke-width="null" stroke="transparent" fill="#00007f"/>
    <text xml:space="preserve" text-anchor="middle" font-family="Arvo" font-size="48" id="svg_4" y="441" x="272" stroke-opacity="0" stroke-linecap="null" stroke-linejoin="null" stroke-dasharray="null" stroke-width="0" stroke="transparent" fill="#000000" style="font-style:normal;font-variant:normal;font-weight:normal;font-stretch:normal;font-family:Arvo;-inkscape-font-specification:Arvo">CASPER</text>
  </g>
</svg>
